name rise43.5482peak65.4966fall89.1036.mot
datacolumns 19
datarows 14
range 15.60660700000000 15.62826900000000
endheader
time	ground_force1_vx	ground_force1_vy	ground_force1_vz	ground_force1_px	ground_force1_py	ground_force1_pz	ground_force2_vx	ground_force2_vy	ground_force2_vz	ground_force2_px	ground_force2_py	ground_force2_pz	ground_torque1_x	ground_torque1_y	ground_torque1_z	ground_torque2_x	ground_torque2_y	ground_torque2_z	
15.60660700000000	-4.26577300000000	44.68813400000000	-8.92247700000000	0.32922700000000	0.00000000000000	0.08425000000000	-41.58851100000000	807.50098000000003	-61.67884400000000	0.11107800000000	0.00000000000000	-0.10829500000000	0.00000000000000	-5.90017300000000	0.00000000000000	0.00000000000000	-21.24150600000000	0.00000000000000	
15.60827600000000	-4.63694600000000	51.00192500000000	-9.82451900000000	0.33041700000000	0.00000000000000	0.08503400000000	-42.28492300000000	805.26674600000001	-61.35672100000000	0.11032800000000	0.00000000000000	-0.10813900000000	0.00000000000000	-6.51422200000000	0.00000000000000	0.00000000000000	-21.21157700000000	0.00000000000000	
15.60993400000000	-4.93550800000000	57.23072400000000	-10.61566400000000	0.33151600000000	0.00000000000000	0.08576800000000	-42.99172600000000	802.90786300000002	-61.01771400000000	0.10957500000000	0.00000000000000	-0.10798100000000	0.00000000000000	-7.05919800000000	0.00000000000000	0.00000000000000	-21.18185600000000	0.00000000000000	
15.61160300000000	-5.15291800000000	63.31033800000000	-11.28165400000000	0.33254000000000	0.00000000000000	0.08646000000000	-43.70847600000000	800.42236800000001	-60.66174400000000	0.10881800000000	0.00000000000000	-0.10782100000000	0.00000000000000	-7.52586600000000	0.00000000000000	0.00000000000000	-21.15233300000000	0.00000000000000	
15.61326900000000	-5.28431000000000	69.20158000000001	-11.81533400000000	0.33350100000000	0.00000000000000	0.08711500000000	-44.43466800000000	797.80826400000001	-60.28873700000000	0.10805700000000	0.00000000000000	-0.10765800000000	0.00000000000000	-7.90968900000000	0.00000000000000	0.00000000000000	-21.12298400000000	0.00000000000000	
15.61493300000000	-5.32825800000000	74.88966000000001	-12.21616100000000	0.33440800000000	0.00000000000000	0.08773800000000	-45.16972700000000	795.06352500000003	-59.89862900000000	0.10729300000000	0.00000000000000	-0.10749300000000	0.00000000000000	-8.21050200000000	0.00000000000000	0.00000000000000	-21.09377500000000	0.00000000000000	
15.61659800000000	-5.28629700000000	80.38168200000000	-12.48925100000000	0.33527200000000	0.00000000000000	0.08833100000000	-45.91301500000000	792.18610300000000	-59.49136900000000	0.10652500000000	0.00000000000000	-0.10732600000000	0.00000000000000	-8.43189100000000	0.00000000000000	0.00000000000000	-21.06465700000000	0.00000000000000	
15.61826900000000	-5.16230100000000	85.70277400000001	-12.64412800000000	0.33609700000000	0.00000000000000	0.08889800000000	-46.66382000000000	789.17393000000004	-59.06691300000000	0.10575500000000	0.00000000000000	-0.10715600000000	0.00000000000000	-8.58036200000000	0.00000000000000	0.00000000000000	-21.03557000000000	0.00000000000000	
15.61994200000000	-4.96177300000000	90.89140800000000	-12.69333200000000	0.33689000000000	0.00000000000000	0.08944200000000	-47.42136500000000	786.02492700000005	-58.62523300000000	0.10498200000000	0.00000000000000	-0.10698300000000	0.00000000000000	-8.66442300000000	0.00000000000000	0.00000000000000	-21.00644200000000	0.00000000000000	
15.62160400000000	-4.69114000000000	95.99445299999999	-12.65102100000000	0.33765500000000	0.00000000000000	0.08996600000000	-48.18480200000000	782.73700599999995	-58.16631200000000	0.10420600000000	0.00000000000000	-0.10680900000000	0.00000000000000	-8.69365200000000	0.00000000000000	0.00000000000000	-20.97718700000000	0.00000000000000	
15.62326600000000	-4.35710300000000	101.06238600000000	-12.53168200000000	0.33839700000000	0.00000000000000	0.09047000000000	-48.95321300000000	779.30808500000001	-57.69014800000000	0.10342900000000	0.00000000000000	-0.10663100000000	0.00000000000000	-8.67784100000000	0.00000000000000	0.00000000000000	-20.94770500000000	0.00000000000000	
15.62493900000000	-3.96607500000000	106.14503999999999	-12.34904000000000	0.33911700000000	0.00000000000000	0.09095700000000	-49.72560900000000	775.73608600000000	-57.19675400000000	0.10264900000000	0.00000000000000	-0.10645200000000	0.00000000000000	-8.62627500000000	0.00000000000000	0.00000000000000	-20.91788600000000	0.00000000000000	
15.62660100000000	-3.52375800000000	111.28811300000000	-12.11521400000000	0.33981800000000	0.00000000000000	0.09142900000000	-50.50093400000000	772.01895200000001	-56.68615800000000	0.10186700000000	0.00000000000000	-0.10627000000000	0.00000000000000	-8.54715900000000	0.00000000000000	0.00000000000000	-20.88760500000000	0.00000000000000	
15.62826900000000	-3.03484300000000	116.53058299999999	-11.84014400000000	0.34050100000000	0.00000000000000	0.09188600000000	-51.27806000000000	768.15464899999995	-56.15840800000000	0.10108400000000	0.00000000000000	-0.10608500000000	0.00000000000000	-8.44724000000000	0.00000000000000	0.00000000000000	-20.85672500000000	0.00000000000000	
